<svg width="52" height="102" viewBox="0 0 52 102" fill="none" xmlns="http://www.w3.org/2000/svg">
<path d="M15.9447 14.9265C15.5741 17.8908 6.8738 18.2215 17.5922 18.2215" stroke="black" stroke-width="3" stroke-linecap="round"/>
<path d="M43.7383 13.8257C36.3414 22.1471 52.1089 16.2656 42.5183 16.2656" stroke="black" stroke-width="3" stroke-linecap="round"/>
<path d="M4.69922 12.6055C8.88675 12.6055 11.9108 12.7138 15.0691 9.55559C17.1193 7.50532 16.0477 3.88137 18.119 2.8457" stroke="black" stroke-width="3" stroke-linecap="round"/>
<path d="M49.8385 8.94561C46.0549 8.94561 42.8483 8.39813 39.5364 6.50565C38.5484 5.94105 38.4095 2.78193 37.6387 1.62573" stroke="black" stroke-width="3" stroke-linecap="round"/>
<path d="M31.5039 34.6306C31.5039 38.9609 35.1475 44.161 36.8262 48.0349C37.3259 49.1881 38.1057 50.3196 38.5127 51.4954C39.0108 52.9343 35.7865 52.4073 35.0959 52.4591C29.3618 52.8892 25.5981 55.442 20.8594 58.2852" stroke="black" stroke-width="3" stroke-linecap="round"/>
<path d="M25.9839 77.2088C18.079 77.2088 9.90022 76.5786 2.02272 77.2088C1.6522 77.2384 2.49925 77.7952 2.8112 77.9973C6.49406 80.3834 9.69516 83.4988 13.171 86.1669C19.8092 91.2624 26.7644 95.703 33.8688 100.075" stroke="black" stroke-width="3" stroke-linecap="round"/>
</svg>
