<svg width="107" height="106" viewBox="0 0 107 106" fill="none" xmlns="http://www.w3.org/2000/svg">
<path d="M43.1062 2.01024C43.1062 -0.227046 41.7368 14.989 45.5404 11.1854C47.6632 9.06255 47.9733 -1.91992 43.1062 5.38069" stroke="black" stroke-width="3" stroke-linecap="round"/>
<path d="M66.4359 2.35669C66.4359 4.96939 65.8867 8.75434 68.7455 10.1837C70.557 11.0895 69.6216 5.6818 67.5907 4.66631" stroke="black" stroke-width="3" stroke-linecap="round"/>
<path d="M1.7666 76.2648C5.84133 75.5856 9.84322 73.2289 11.5183 69.4C12.5549 67.0307 12.2864 64.6093 14.7262 62.9203C20.0955 59.203 30.433 57.9738 36.6676 56.8896C38.7325 56.5305 57.0202 53.6182 57.1976 56.6329C57.3325 58.9269 58.4027 66.6751 56.0428 67.9244C52.4372 69.8333 47.225 67.1367 43.3398 69.0793C40.2251 70.6366 40.9935 75.825 39.6188 78.5744C32.9366 91.9387 17.746 101.509 2.92141 103.98" stroke="black" stroke-width="3" stroke-linecap="round"/>
<path d="M102.235 60.0974C92.6329 60.0974 83.0309 60.0974 73.4288 60.0974C68.8783 60.0974 61.9705 58.8912 57.8389 61.2522C49.0603 66.2685 64.203 72.8003 68.168 72.8003C79.641 72.8003 72.4673 82.7614 77.9839 88.9677C84.8496 96.6915 94.6233 97.0513 104.545 97.0513" stroke="black" stroke-width="3" stroke-linecap="round"/>
</svg>
