<svg width="161" height="99" viewBox="0 0 161 99" fill="none" xmlns="http://www.w3.org/2000/svg">
<path d="M22.4574 6.06836C21.297 6.06836 19.9397 6.20756 19.1646 7.15487C18.7753 7.63073 18.7865 8.26948 18.6657 8.87333C18.3865 10.2694 18.0258 11.6283 17.8675 13.0531C17.2795 18.3449 14.4749 23.4275 14.4749 28.7631C14.4749 32.1599 13.8287 36.4365 14.9849 39.6947C15.5947 41.4134 15.9522 43.249 16.659 44.9277C17.1981 46.2081 18.1846 47.0536 19.22 47.9211C21.2942 49.6589 23.4168 51.731 25.6504 53.2539C27.0585 54.2139 28.0462 55.5289 29.2647 56.6797C30.034 57.4063 30.7203 58.2351 31.471 58.9858C33.3599 60.8747 35.8099 62.257 38.1674 63.487C39.3933 64.1266 41.599 64.5987 42.4248 65.8374C42.7333 66.3002 45.4616 68.1022 44.5091 68.6313C43.8958 68.972 42.6875 68.7311 42.0367 68.7311C40.0618 68.7311 38.1367 68.5066 36.1718 68.332C34.5249 68.1856 32.5949 67.9251 31.0164 67.4229C29.2525 66.8616 27.1467 66.4454 25.5395 65.527C23.7088 64.4809 21.4736 64.0608 19.7744 62.722C17.2466 60.7305 15.9867 57.4091 13.976 54.9613C12.4451 53.0976 10.9374 51.0784 9.77407 48.9633C8.95418 47.4726 8.487 45.8643 7.88931 44.2847C6.57504 40.8112 5.56956 37.2346 4.19739 33.7743C3.53922 32.1146 2.90836 30.2201 2.53437 28.4748C2.3891 27.7969 2.24626 27.0098 2.31263 26.3129C2.39885 25.4076 2.9014 24.5387 3.28827 23.7408C3.98413 22.3055 4.24805 20.5922 4.68521 19.0621C5.37376 16.6522 6.48023 14.8142 8.48799 13.2526C9.57954 12.4036 10.957 11.9415 12.1023 11.1461C13.1752 10.401 14.2571 9.74753 15.3618 9.0618C15.869 8.74703 16.5864 8.4805 16.9472 7.97529C17.0486 7.83345 16.0708 8.38946 15.8718 8.67376C14.077 11.2378 12.5261 13.9872 10.5945 16.4456C9.72174 17.5564 8.40332 18.0813 7.67866 19.3947C5.73262 22.9219 6.32106 27.4957 7.29062 31.2355C7.96708 33.8447 8.2945 36.7149 9.39711 39.1847C10.9058 42.5641 13.0121 45.3164 15.6168 47.9211C19.6448 51.9491 24.7434 54.1677 29.3312 57.4447C30.7258 58.4409 31.7896 59.7455 33.1673 60.7708C34.4047 61.6917 35.8667 62.4946 36.9146 63.6423C37.7406 64.5469 38.9489 66.0727 39.4092 67.2233C39.7028 67.9575 39.5324 67.9329 38.8105 67.9329C37.0734 67.9329 35.5665 67.7844 33.9544 67.0792C29.2031 65.0005 25.0024 61.6928 20.5283 59.1077C19.7808 58.6759 18.991 58.2961 18.3109 57.7551C17.0227 56.7304 16.1701 54.9227 15.3397 53.5422C12.7838 49.2931 11.0364 44.6928 9.13103 40.1493C7.54022 36.3558 6.84712 32.3975 5.69411 28.4638C5.18837 26.7383 4.21272 23.5992 5.09542 21.8338C5.94826 20.1282 7.5139 18.6339 8.84277 17.2882C9.71437 16.4056 10.3796 15.392 11.2154 14.5165C11.9842 13.7111 13.449 11.1718 15.0292 11.9444C16.5346 12.6803 16.1171 17.0287 16.027 18.4191C15.8945 20.4657 15.1524 21.8204 14.5192 23.6964C13.6066 26.4006 13.4322 29.3831 13.0779 32.1889C12.6841 35.308 12.3675 38.435 12.2908 41.5795C12.2819 41.9446 12.2728 42.9653 12.0801 42.6549C11.4037 41.565 11.1386 39.9201 10.7719 38.7302C10.0073 36.2496 9.46866 33.8499 9.28625 31.2576C8.95538 26.5558 9.08668 21.8218 9.08668 17.1108C9.08668 15.8714 9.3057 14.13 9.5745 16.5343C10.0072 20.4041 10.3985 24.2131 10.528 28.109C10.6362 31.3665 10.8893 34.5721 11.4814 37.7767C11.6325 38.5944 11.681 38.4813 11.681 37.7213C11.681 35.5815 11.681 33.4417 11.681 31.302C11.681 26.6026 11.4621 21.8472 12.0801 17.1774C12.2888 15.6004 12.485 13.7616 13.2775 12.3435C13.6521 11.6732 14.2428 12.1016 14.3197 12.6318C14.5673 14.3404 14.6744 15.936 14.6744 17.6652C14.6744 19.9337 14.4136 21.8078 13.8318 24.029C12.9828 27.271 13.4771 31.0296 13.4771 34.3619C13.4771 37.408 13.4556 40.2105 14.4749 43.0984C15.4263 45.7941 18.2497 48.0661 20.0626 50.1274C22.6269 53.0429 24.8881 56.0799 27.0917 59.2851C28.5029 61.3379 29.8943 63.4551 32.236 64.5403C34.0711 65.3907 40.1023 65.9355 38.0898 66.1368C36.8972 66.2561 35.5748 65.574 34.542 65.0503C33.1055 64.3219 31.5093 63.4849 30.2404 62.5003C29.0167 61.5509 27.729 60.7884 26.5817 59.7286C24.6978 57.9884 22.8547 56.2291 20.9052 54.5621C19.2696 53.1635 17.3747 52.0827 15.7166 50.7261C14.8442 50.0123 17.1965 52.4271 17.9118 53.2982C18.9916 54.6134 20.0691 55.9262 21.1713 57.223C22.1872 58.4181 23.0561 59.547 23.0561 61.1477C23.0561 61.4912 23.2457 63.2395 22.7678 63.099C21.6856 62.7807 20.5193 61.1147 20.0183 60.1499C19.6473 59.4354 19.3643 58.7645 19.1092 57.9991C17.9388 54.4878 16.3957 50.9669 14.5192 47.777C14.3629 47.5113 14.362 47.8823 14.4194 48.0098C14.8736 49.019 15.914 49.9323 16.6479 50.7039C18.5145 52.6662 20.3946 54.6061 22.2135 56.6132C23.6981 58.2514 25.1923 60.2284 27.0917 61.4138C28.7244 62.4328 30.5796 62.5447 32.4355 62.5447C33.1477 62.5447 32.0555 61.8929 31.7925 61.7021C31.1221 61.2155 28.8275 60.1181 28.4443 59.3517" stroke="white" stroke-width="3" stroke-linecap="round"/>
<path d="M154.257 30.2656C154.497 31.5852 155.623 32.7554 156.191 33.9474C156.926 35.4924 157.183 37.2539 157.322 38.9402C157.433 40.2841 157.469 41.6352 157.166 42.9452C156.931 43.9639 156.681 44.9839 156.388 45.9863C155.616 48.6286 155.284 51.3804 154.041 53.8647C153.337 55.2745 152.582 56.5827 151.455 57.6961C150.655 58.4866 149.675 59.2255 148.725 59.8273C146.242 61.401 143.56 62.5191 140.895 63.7245C140.071 64.0971 139.092 64.3199 138.201 64.4489C136.605 64.68 135.031 65.2513 133.472 65.6582C130.976 66.3093 128.27 66.4991 125.701 66.7358C123.571 66.932 121.424 66.9181 119.289 67.0052C118.483 67.0381 117.672 67.0112 116.865 67.0112C116.416 67.0112 117.059 67.0812 117.32 67.0112C118.744 66.6285 120.182 66.3665 121.624 66.0713C123.79 65.6276 125.945 65.0233 128.072 64.425C129.884 63.915 131.758 63.4191 133.34 62.3536C134.482 61.5846 135.352 60.2405 136.249 59.2166C137.491 57.8001 138.769 56.4493 140.129 55.1458C142.689 52.6907 145.445 49.9753 146.582 46.5251C147.057 45.0857 147.418 43.6292 147.708 42.143C148.032 40.4803 148.672 38.8685 149.132 37.24C149.56 35.7291 150.092 34.2541 150.539 32.75C150.729 32.1126 150.894 30.9507 151.455 30.5051C152.004 30.0693 151.779 31.9261 151.779 32.2053C151.779 32.4551 151.834 32.6554 151.886 32.8997C152.128 34.0343 152.013 35.305 151.988 36.4557C151.971 37.2257 151.798 37.7273 151.216 38.2397C150.502 38.8682 149.992 39.6394 149.54 40.4727C146.365 46.3244 146.464 54.6552 140.596 58.7976C139.262 59.7392 137.711 60.4116 136.178 60.9527C135.363 61.2402 134.217 61.6935 134.609 62.7487C134.799 63.259 135.059 63.7018 135.208 64.2334C135.302 64.5713 135.421 65.7034 135.782 65.8677C135.93 65.9348 136.183 65.6932 136.261 65.6342C137.084 65.0118 137.873 64.3389 138.668 63.6826C140.657 62.0412 142.665 60.4551 144.792 58.9951C145.407 58.5735 146.109 58.2723 146.708 57.8397C147.292 57.4182 147.78 56.838 148.246 56.2952C149.219 55.1648 150.107 53.8793 150.904 52.6195C152.241 50.5077 152.444 47.6708 152.7 45.256C153.084 41.6431 153.179 37.9521 153.179 34.3185C153.179 33.7208 153.086 33.1432 153.072 32.5525C153.063 32.1925 153.19 32.5955 153.245 32.7261C154.017 34.5667 154.726 36.1977 154.927 38.2158C155.048 39.4183 155.107 40.7203 154.987 41.9275C154.528 46.5742 152.429 50.8308 149.659 54.5232C148.755 55.7294 147.768 56.8931 146.618 57.8757C145.226 59.0655 143.621 59.9634 141.973 60.7492C141.443 61.0018 140.839 61.1676 140.248 61.1922C139.597 61.2194 139.222 61.2494 138.632 61.5754C138.213 61.8066 137.841 62.11 137.495 62.4374C137.344 62.5796 137.183 62.5931 137.453 62.5931C138.339 62.5931 138.749 62.1085 139.554 61.719C143.154 59.9778 146.835 58.4218 150.342 56.4868C151.255 55.9826 152.107 55.4675 152.898 54.7986C153.298 54.4605 153.169 54.2164 153.024 53.6731C152.739 52.6113 152.616 51.5331 152.431 50.4523C152.33 49.8606 152.328 49.3952 151.862 50.1051C150.498 52.1857 148.794 53.9406 146.822 55.475C144.677 57.1432 142.116 58.0524 139.752 59.3424C138.848 59.8352 137.885 60.4116 137.471 61.3838C137.078 62.3043 137.059 63.3845 136.237 64.0418C136.011 64.223 135.795 64.4123 135.591 64.6165C135.115 65.0926 136.52 63.6423 136.986 63.1558C140.151 59.8463 143.297 56.5174 146.498 53.2421C148.323 51.3748 150.62 49.4997 151.832 47.1238C152.463 45.8875 152.843 44.4962 153.251 43.1727C154.06 40.549 154.828 37.9246 155.801 35.3542C156.018 34.7813 156.754 33.1021 156.454 33.6361C156.029 34.3924 155.763 35.2586 155.406 36.0486C153.714 39.8019 151.236 43.1571 149.522 46.9083C149.34 47.3048 149.054 47.7785 148.953 48.2014C148.711 49.2168 148.6 50.2574 148.342 51.2725C148.265 51.5752 148.207 52.172 147.911 52.38C146.765 53.1846 145.135 54.1925 143.721 54.4873C143.104 54.6158 142.384 54.5112 141.757 54.5112" stroke="white" stroke-width="3" stroke-linecap="round"/>
<path d="M140.787 61.5156C140.474 61.7941 140.245 62.1589 139.925 62.4256C138.871 63.3038 137.665 63.943 136.495 64.6526C135.819 65.0625 135.119 65.3924 134.489 65.8738C133.883 66.3374 133.335 66.8773 132.753 67.3705C132.218 67.8236 131.51 68.2677 130.85 68.5079C130.543 68.6194 131.486 68.3597 131.795 68.2565C132.942 67.8742 134.196 67.6331 135.375 67.3585C135.673 67.2891 136.886 67.2705 137.016 67.0113" stroke="white" stroke-width="3" stroke-linecap="round"/>
<path d="M151.67 37.0544C151.67 39.0468 151.517 40.9481 150.377 42.6579" stroke="white" stroke-width="3" stroke-linecap="round"/>
<path d="M35.9133 2.47534C38.49 2.47534 41.5905 1.97049 44.0385 2.90804C46.7708 3.95445 48.7803 5.91827 51.0579 7.66778C53.1293 9.25886 55.6717 11.1847 57.3562 13.1968C58.8598 14.9928 60.0462 17.0888 61.7072 18.7498C66.276 23.3186 70.043 29.3829 72.3565 35.4088C75.3442 43.1906 77.4179 52.8641 75.0249 61.1066C74.2767 63.6836 71.7754 68.2462 68.6065 68.2462C66.507 68.2462 64.4076 68.2462 62.3082 68.2462C58.2964 68.2462 54.3124 69.5443 50.2166 69.5443C44.4565 69.5443 38.6921 69.6097 32.9325 69.5443C28.8532 69.4979 23.8537 68.1399 20.7687 65.2173C17.6594 62.2716 13.7489 59.9612 11.5137 56.1786C8.3126 50.7613 4.97573 46.4044 3.36447 40.1205C2.00919 34.8349 1.76813 29.1172 2.18655 23.6778C2.60762 18.2039 5.1958 15.0194 8.84537 11.3698C12.3409 7.87425 16.8254 4.561 21.9707 4.20615C24.8071 4.01054 27.6728 3.25836 30.4805 2.88401C31.9358 2.68996 33.3694 2.32816 34.8075 2.06668C35.5468 1.93227 38.6384 2.04264 36.346 2.04264" stroke="black" stroke-width="3" stroke-linecap="round"/>
<path d="M26.8265 2.9082C24.2353 3.19611 22.718 7.68243 21.8504 9.59106C20.7239 12.0695 19.2453 14.2764 18.0763 16.7547C16.5481 19.9944 16.0089 23.3643 16.0089 26.9232C16.0089 31.9401 15.3095 36.5619 18.4128 40.7937C20.9247 44.219 23.1729 47.77 26.7303 50.4094C29.8985 52.7599 33.2932 54.4 36.5383 56.5634C39.0279 58.2231 41.2954 60.18 43.7981 61.7558C47.2381 63.9218 51.3041 65.4608 54.9522 67.2848C56.2461 67.9317 59.5613 68.679 56.2503 68.679C54.3143 68.679 52.5534 68.7139 50.7213 68.1502C46.1241 66.7357 41.7934 65.5604 37.8604 62.8376C33.9204 60.1099 29.1984 57.3991 26.5861 53.2941C25.277 51.2369 24.0837 49.1913 22.6918 47.1401C21.1496 44.8674 18.6171 42.7528 17.7397 40.1207" stroke="black" stroke-width="3" stroke-linecap="round"/>
<path d="M135.868 69.1116C125.447 69.1116 115.075 70.1257 105.146 66.5154C99.9162 64.6135 93.5639 61.9515 89.2325 58.4863C85.2251 55.2804 84.4594 50.5348 83.5112 45.7937C82.3277 39.8763 79.9285 31.6834 82.6458 25.8413C85.3348 20.0598 90.8773 14.8418 96.4922 11.9948C100.427 9.99985 105.035 8.87488 109.233 7.47544C114.593 5.6886 120.225 5.07153 125.868 5.07153C131.384 5.07153 135.387 6.00223 139.955 9.15817C143.709 11.7523 147.849 16.0002 150.58 19.6873C151.75 21.2669 152.889 22.2131 153.801 24.0624C155.439 27.3822 157.288 31.0363 158.032 34.6876C158.849 38.697 159.369 43.2185 158.705 47.3322C157.511 54.735 153.397 59.5061 147.647 63.4864C143.601 66.2878 139.539 67.1667 135.003 68.6789" stroke="black" stroke-width="3" stroke-linecap="round"/>
<path d="M153.175 22.3796C153.175 24.8316 153.175 27.2836 153.175 29.7356C153.175 32.7628 152.137 35.2751 151.108 38.0531C150.186 40.5441 148.39 42.5285 147.214 44.8802C145.898 47.5109 144.687 50.7726 142.574 52.8852C133.987 61.4729 121.741 64.0972 110.338 66.948" stroke="black" stroke-width="3" stroke-linecap="round"/>
<path d="M40.2402 82.5254C45.599 82.5254 51.1521 86.5627 55.481 89.4486C58.241 91.2886 61.5935 92.3451 64.2312 94.3045C65.4385 95.2014 67.52 96.5044 69.039 96.7805C74.7845 97.8252 78.7753 94.5645 83.5346 92.0449C90.8954 88.1479 98.6987 87.7178 106.876 87.7178" stroke="black" stroke-width="3" stroke-linecap="round"/>
<path d="M43.8087 25.0229C46.6563 25.0229 49.1974 26.1004 51.6537 27.5003C53.638 28.6311 56.1522 30.1289 57.6149 31.9905C57.8446 32.2828 58.7396 33.0092 58.6213 33.384C58.4719 33.857 58.4406 34.1666 58.4406 34.6872C58.4406 37.2917 60.1094 39.6108 60.5438 42.1451C60.9768 44.6706 61.9244 46.9343 61.9244 49.5255C61.9244 51.9965 59.691 54.1866 57.5116 55.2157C54.0393 56.8554 49.8679 54.284 46.5442 53.3577C42.4197 52.2082 39.8495 49.4188 37.1895 46.145C34.3865 42.6951 30.2856 39.617 29.0607 35.1259C28.5674 33.3171 28.0156 31.6559 28.0156 29.7712C28.0156 28.5411 28.0156 27.311 28.0156 26.0809C28.0156 23.6618 27.3974 18.3874 30.5187 17.307C32.0142 16.7893 32.6583 14.5715 34.4154 14.5715C37.0749 14.5715 40.3577 14.8033 42.2991 16.8941C43.0915 17.7474 43.7484 18.8208 44.5571 19.6295C45.5784 20.6508 46.9642 21.0354 47.9893 22.0036C49.0719 23.0261 49.2492 23.4223 49.6151 25.0229C50.0196 26.7928 49.8473 28.6782 49.8473 30.4808C49.8473 32.7819 49.9398 35.096 49.6667 37.3839C49.5066 38.724 50.2453 38.663 51.2408 39.2935C53.1301 40.49 55.0466 41.6885 56.7762 43.1128C58.1217 44.2209 59.4051 45.0906 60.2987 46.6224C61.2096 48.1839 62.0055 49.9098 62.6212 51.6029C63.2051 53.2087 64.4073 54.5227 64.9437 56.1318C65.3611 57.3839 64.9437 56.1537 64.9437 55.2673C64.9437 53.9968 64.9486 52.8561 64.6598 51.6287C64.413 50.5795 65.0948 46.6979 64.0147 46.1579" stroke="black" stroke-width="23" stroke-linecap="round"/>
<path d="M117.2 42.2097C117.2 44.2602 116.714 45.8702 115.781 47.7064C115.046 49.1534 114.438 50.8178 112.904 51.4998C111.945 51.9261 110.085 52.2682 109.536 53.2288C109.066 54.0516 108.331 54.9111 107.626 53.8224C107.045 52.9244 105.206 52.7137 104.375 51.9127C104.009 51.5602 102.101 49.1231 101.407 49.9902C100.254 51.4315 99.2899 49.3569 98.4135 48.4806C98.0142 48.0812 97.69 47.6384 97.2781 47.2677C97.0798 47.0892 96.7184 47.1725 96.5297 46.9838C96.2023 46.6564 95.8504 44.827 95.6523 44.3516C95.4475 43.8602 95.4044 42.6611 95.0846 42.2614C94.5285 41.5662 94.3242 39.8678 94.1943 38.9582C94.1193 38.4336 93.8243 37.9553 93.7298 37.4357C93.6033 36.7399 93.6311 35.9052 93.3943 35.2422C92.9793 34.0801 93.0459 32.1111 93.0459 30.881C93.0459 29.6234 93.4765 28.4907 94.6717 27.8617C95.8038 27.2659 96.3349 26.0998 97.1104 25.1521C97.7702 24.3456 99.0071 23.6848 100.014 23.3973C101.475 22.9798 102.861 21.2355 104.233 20.4812C106.254 19.3693 108.474 18.7688 110.594 17.9394C113.147 16.9403 116.124 16.8823 118.594 15.7846C120.306 15.0236 122.106 14.804 123.987 14.804C126.289 14.804 128.348 14.8216 130.555 15.5007C132.052 15.9615 133.262 17.1267 134.387 18.1716C135.507 19.2119 136.081 20.8074 136.942 22.0554C137.832 23.3459 139.131 24.3665 140.193 25.4876C142.709 28.1437 139.195 30.9636 138.219 33.5003C137.648 34.9839 138.251 36.6219 137.819 38.0808C137.193 40.1953 135.61 41.8725 134.206 43.5C132.024 46.0293 129.428 48.9142 126.271 50.1966C124.303 50.9962 122.763 50.5797 121.226 49.2676C116.944 45.6125 113.35 41.7414 110.504 36.7905C110.222 36.3002 108.859 34.282 109.355 33.4874C109.767 32.8281 111.407 32.289 112.065 31.8358C114.053 30.4662 115.546 29.5587 117.974 29.2552C122.971 28.6306 122.38 37.499 122.026 40.6872C121.69 43.7105 119.793 46.5549 118.413 49.1773C117.94 50.0761 117.845 51.14 117.432 51.9643" stroke="black" stroke-width="23" stroke-linecap="round"/>
<path d="M31.2673 6.44269C29.7577 6.44269 28.2481 6.44269 26.7384 6.44269C25.6368 6.44269 24.5165 7.53878 26.1578 5.84916C27.3867 4.58408 28.6025 4.81693 30.3125 4.81693C33.4134 4.81693 36.5735 4.64306 39.6155 5.35885C42.0659 5.93541 44.4232 6.92007 46.7121 7.95233C48.2454 8.64379 49.6671 9.31514 51.3443 9.47488C52.2832 9.56429 53.0509 10.2947 53.4475 11.0877C53.9221 12.037 53.898 13.1623 54.2603 14.1586C54.504 14.8287 54.695 15.365 55.1893 15.9134C57.2931 18.2472 59.9083 20.2064 62.2343 22.3133C65.8024 25.5451 69.8052 28.9769 71.447 33.6678C72.0276 35.3267 72.6549 38.3169 72.0922 40.0677C71.7589 41.1046 70.6258 37.8361 70.5696 37.5645C70.472 37.0927 70.3194 34.3279 70.2858 36.042C70.2581 37.4548 69.3067 38.2696 67.9632 38.4935" stroke="black" stroke-width="2" stroke-linecap="round"/>
<path d="M122.31 60.0932C119.362 60.5845 117.5 64.1375 114.633 64.8544C112.011 65.5099 109.507 65.8663 106.865 65.306C105.59 65.0354 104.28 64.5517 103.085 64.0415C102.45 63.7705 101.638 63.1897 100.943 63.1125C99.9001 62.9966 98.751 62.584 97.743 62.2351C95.5843 61.4878 93.9208 60.1418 92.3496 58.5707C91.9917 58.2128 91.4924 57.8725 91.0335 57.6674C89.5613 57.0096 88.3108 55.9143 87.0078 54.9836" stroke="black" stroke-width="2" stroke-linecap="round"/>
<path d="M149.483 36.8679C149.348 37.7485 148.846 38.6134 148.451 39.3969C148.316 39.6636 147.109 42.3903 146.812 42.3903C146.52 42.3903 148.154 37.0092 148.322 36.1711" stroke="black" stroke-width="2" stroke-linecap="round"/>
<path d="M28.9558 13.678C31.5504 13.678 33.3375 14.2668 34.7377 16.4083C35.6588 17.817 35.5407 19.4783 35.5407 21.0838C35.5407 22.5222 35.4371 23.4384 34.586 24.6618C33.8483 25.7222 32.7005 27.2782 31.4363 27.7401C30.1532 28.2089 28.7348 28.1777 27.3854 28.1327C26.2316 28.0943 25.7861 27.2119 25.583 26.1965C25.3516 25.0393 24.9104 24.0207 24.7889 22.8059C24.6374 21.2908 24.3777 18.4321 25.7436 17.4077C26.2019 17.0639 26.944 16.8014 27.5103 16.7385C27.9085 16.6942 29.2494 16.5085 29.5179 16.8366C29.9213 17.3297 29.7588 18.2352 29.7588 18.8174C29.7588 19.9684 29.8437 21.1518 29.7231 22.2973C29.6338 23.1456 29.0972 24.849 28.1884 25.2061C27.3953 25.5176 27.6709 24.2063 27.6709 23.7963C27.6709 22.9609 27.4619 21.8409 27.8494 21.066C28.2786 20.2074 29.2481 19.4118 30.08 18.9959C31.8456 18.1131 33.1449 18.8203 33.8454 20.5217C34.0386 20.991 33.9441 21.6904 33.9346 22.1902C33.9192 23.0073 33.5549 23.1826 33.1673 23.7963C32.8782 24.2539 32.156 25.1478 31.6861 25.2418" stroke="white" stroke-width="10" stroke-linecap="round"/>
<path d="M106.048 29.2571C105.986 30.0089 105.535 30.5854 105.12 31.1844C104.584 31.9586 104.268 32.8946 103.72 33.6738C102.888 34.8559 101.741 35.4442 100.427 36.0026C99.3674 36.453 97.2998 36.4392 96.8937 35.1193C96.3588 33.3809 95.9669 31.6554 95.93 29.7924C95.9 28.2771 95.4672 25.4783 97.2417 24.6798C98.322 24.1936 100.027 24.2747 101.069 24.7958C102.611 25.5667 103.347 27.7681 102.354 29.2571" stroke="white" stroke-width="10" stroke-linecap="round"/>
<path d="M52.8975 51.5497C53.935 52.1203 54.739 53.0481 55.7284 53.6934C56.6481 54.2932 57.6657 54.7367 58.5719 55.3516C59.0459 55.6732 59.4653 56.0225 59.814 56.4802C59.8733 56.558 60.4373 57.3628 60.495 57.1611C60.7323 56.3304 61.2463 55.5807 61.4596 54.7274C61.5674 54.2962 61.4401 53.8338 61.5794 53.416C61.6768 53.1238 61.7496 52.8217 61.7496 52.5144C61.7496 51.6773 60.004 54.1142 59.7762 54.5446C59.71 54.6697 59.4781 55.1027 59.6564 54.7715C60.1605 53.8354 60.7684 52.9693 61.5668 52.2558C61.6393 52.1911 63.253 50.9645 63.452 51.5119C64.0395 53.1276 64.1997 55.5859 63.7862 57.2746C63.4978 58.4521 63.1743 59.9872 61.8253 60.2632C61.2467 60.3815 60.8793 60.1466 60.3626 59.9227C60.0471 59.786 59.7821 59.4956 59.4988 59.3048C58.8148 58.8442 58.1143 58.4073 57.4244 57.9555C56.566 57.3934 55.7278 56.8837 54.9024 56.2784C53.8395 55.4989 53.011 54.0307 53.011 52.7098C53.011 51.1457 56.4317 51.7454 57.2353 52.2811C58.2954 52.9878 58.6951 54.2702 59.2529 55.3579C59.8234 56.4704 61.1064 57.2618 61.9766 58.1321" stroke="white" stroke-width="3" stroke-linecap="round"/>
<path d="M129.957 51.4362C128.809 51.4362 128.064 50.6781 127.297 49.9104C126.183 48.7963 125.343 47.2648 124.85 45.7743C124.636 45.126 124.188 43.7189 125.185 43.7189C126.302 43.7189 126.855 44.057 127.788 44.652C128.42 45.0546 128.887 45.4207 129.276 46.077C129.485 46.4278 129.844 47.5694 129.844 47.1614C129.844 45.9914 130.576 44.3284 131.155 43.3658C131.423 42.9215 134.799 39.6641 135.153 41.4743C135.754 44.5499 133.233 47.494 131.483 49.6582C130.958 50.3075 130.312 50.9072 129.85 51.6001C129.843 51.6103 129.725 51.3787 129.718 51.3668C129.591 51.1579 129.443 50.9621 129.333 50.7426C129.012 50.0999 128.601 49.5174 128.28 48.8764C127.927 48.1706 127.418 47.629 127.007 46.9534C126.186 45.6054 128.645 48.0811 128.835 48.2711C128.891 48.3267 129.386 48.8727 129.503 48.8007C129.676 48.6953 129.777 48.3956 129.869 48.2333C130.354 47.3793 130.872 46.5427 131.395 45.7113C131.813 45.0455 132.287 43.9728 133.022 43.6054" stroke="white" stroke-width="3" stroke-linecap="round"/>
</svg>
