<svg width="301" height="190" viewBox="0 0 301 190" fill="none" xmlns="http://www.w3.org/2000/svg">
<path d="M54.5776 2.12793C54.5776 17.2116 47.0019 30.5542 42.8848 44.67C40.5421 52.7021 37.491 60.6971 34.1773 68.4289C25.5515 88.5558 18.6302 109.113 13.2173 130.314C10.3818 141.419 7.70176 152.45 4.44762 163.464C3.96889 165.085 0.459275 173.657 2.20856 175.406C2.71829 175.916 3.29397 174.702 3.76346 174.598C5.47776 174.217 7.61587 174.535 9.3611 174.535C22.8245 174.535 36.5556 173.722 49.8507 176.215C71.1515 180.209 92.8519 184.271 114.41 186.601C129.814 188.267 145.975 186.85 161.493 186.85C173.621 186.85 185.749 186.85 197.877 186.85" stroke="black" stroke-width="3" stroke-linecap="round"/>
<path d="M57.1709 2.76415C89.9191 2.76415 122.667 2.76415 155.416 2.76415C166.783 2.76415 178.15 2.76415 189.518 2.76415C197.408 2.76415 205.298 2.76415 213.188 2.76415C215.068 2.76415 218.031 3.43243 219.178 1.71216" stroke="black" stroke-width="3" stroke-linecap="round"/>
<path d="M253.497 3.27344C253.892 7.61901 256.419 11.8195 257.926 15.8387C261.111 24.3324 264.111 33.1735 266.886 41.7932C271.33 55.5932 276.987 68.9325 281.306 82.7849C284.651 93.5164 285.971 104.672 289.185 115.382C292.297 125.756 292.835 136.6 295.21 147.156C296.198 151.549 297.242 155.94 298.042 160.339C298.213 161.277 299.846 163.635 298.918 163.635C273.857 163.635 249.464 163.602 224.659 159.927C217.338 158.843 210.003 159 202.515 159" stroke="black" stroke-width="3" stroke-linecap="round"/>
<path d="M198.138 188.441C198.138 174.348 204.22 161.29 208.921 148.232C213.834 134.584 218.707 120.949 223.152 107.145C225.852 98.7591 227.282 89.9669 229.961 81.6345C232.371 74.1368 233.069 65.9612 235.776 58.5783C239.783 47.6486 244.152 36.9074 247.055 25.6158C248.699 19.2249 250.052 12.7839 252.608 6.94291C253.147 5.71073 255.396 3.25308 255.238 1.82905C255.156 1.09067 250.107 3.12364 249.919 3.17326C245.306 4.39443 238.906 3.29015 234.198 3.29015C228.986 3.29015 223.812 2.76415 218.652 2.76415" stroke="black" stroke-width="3" stroke-linecap="round"/>
</svg>
